<svg xmlns="http://www.w3.org/2000/svg" viewBox="0 0 186.24 275.52"><defs><style>.cls-1{fill:#c0392b;}.cls-2{fill:#f6f6f6;}.cls-3{fill:#fff;}</style></defs><title>marker_restaurant</title><g id="Layer_2" data-name="Layer 2"><g id="Layer_1-2" data-name="Layer 1"><path class="cls-1" d="M186.24,93.3c0,51.53-85.19,182.22-93.12,182.22S0,144.83,0,93.3a93.12,93.12,0,1,1,186.24,0Z"/><ellipse class="cls-2" cx="93.12" cy="91.77" rx="68.62" ry="68.75"/><path class="cls-1" d="M140.69,94.68s0-2.45,0-3.27c0-8.56-.15-34.26-.15-34.26S139,54,136.66,58s-5.94,25.9-1.78,32.51a12.89,12.89,0,0,1,.84,1.71,17.78,17.78,0,0,1,.42,2.52s-3.51,33,2,33C143,127.78,140.69,94.68,140.69,94.68Z"/><path class="cls-1" d="M56.68,75.15c1-4.54-.79-19.17-.79-19.17h-1V70.61H53.51V56H52.1V70.61H50.62V56H49.21V70.61H47.85V56h-1S45,70.61,46,75.15a9.18,9.18,0,0,0,4.08,6.12s-5.33,46.51,1.24,46.51,1.25-46.51,1.25-46.51A9.18,9.18,0,0,0,56.68,75.15Z"/><ellipse class="cls-1" cx="93.48" cy="91.88" rx="34.53" ry="34.6"/><ellipse class="cls-3" cx="93.48" cy="91.88" rx="27.63" ry="27.69"/><ellipse class="cls-1" cx="93.48" cy="91.88" rx="25.6" ry="25.65"/></g></g></svg>