<svg xmlns="http://www.w3.org/2000/svg" viewBox="0 0 186.24 275.52">
    <defs>
        <style>.cls-1{fill:#c0392b;}.cls-2{fill:#f6f6f6;}</style>
    </defs>
    <title>marker_person</title>
    <g id="Layer_2" data-name="Layer 2">
        <g id="Layer_1-2" data-name="Layer 1">
            <path class="cls-1"
                  d="M186.24,93.3c0,51.53-85.19,182.22-93.12,182.22S0,144.83,0,93.3a93.12,93.12,0,1,1,186.24,0Z"/>
            <ellipse class="cls-2" cx="93.12" cy="91.77" rx="68.62" ry="68.75"/>
            <path class="cls-1"
                  d="M102.18,41.6a9.23,9.23,0,0,0-9.06-9.07c-4.74,0-9.28,4.17-9.06,9.07a9.23,9.23,0,0,0,9.06,9.08C97.86,50.68,102.39,46.5,102.18,41.6Z"/>
            <path class="cls-1"
                  d="M117.12,62.14c-2-4-6.19-6.28-10.41-7.2s-8.43-1.21-12.62-1.76a47.05,47.05,0,0,0-1.94,0c-4.19.55-8.5.87-12.63,1.76s-8.37,3.25-10.4,7.2a18.21,18.21,0,0,0-1.18,12.6c.92,3.92,3,7.45,4.13,11.3a5.44,5.44,0,1,0,10.49-2.89c-1-3.35-2.64-6.44-3.7-9.76-.22-.71-.39-1.43-.56-2.15,0-.06,0-.1,0-.14,0-.3-.06-.59-.07-.89s0-.69,0-1v0h6.18l-1,22.53-1,11.43h0l-5,41a5.44,5.44,0,1,0,10.8,1.33l4.79-39.08h.42l4.79,39.08a5.44,5.44,0,1,0,10.8-1.33l-5.15-42h0l-1.26-10.4-.72-22.53H108v0c0,.35,0,.7,0,1s0,.59-.06.89c0,0,0,.08,0,.14-.17.72-.34,1.44-.57,2.15-1.05,3.32-2.71,6.41-3.69,9.76A5.44,5.44,0,1,0,114.17,86c1.13-3.85,3.21-7.38,4.13-11.3A18.27,18.27,0,0,0,117.12,62.14Z"/>
        </g>
    </g>
</svg>