<svg version="1.2" baseProfile="tiny-ps" xmlns="http://www.w3.org/2000/svg" viewBox="0 0 187 276" width="180" height="266">
	<title>marker_person-svg</title>
	<style>
		tspan { white-space:pre }
		.shp0 { fill: #c0392b } 
		.shp1 { fill: #f6f6f6 } 
	</style>
	<g id="Layer_2">
		<g id="Layer_1-2">
			<path id="Layer" class="shp0" d="M186.24 93.3C186.24 144.83 101.05 275.52 93.12 275.52C85.19 275.52 0 144.83 0 93.3C0 68.6 9.81 44.92 27.27 27.45C44.74 9.99 68.42 0.18 93.12 0.18C117.82 0.18 141.5 9.99 158.97 27.45C176.43 44.92 186.24 68.6 186.24 93.3L186.24 93.3Z" />
			<path id="Layer" class="shp1" d="M93.12 160.52C55.17 160.52 24.5 129.79 24.5 91.77C24.5 53.75 55.17 23.02 93.12 23.02C131.07 23.02 161.74 53.75 161.74 91.77C161.74 129.79 131.07 160.52 93.12 160.52Z" />
		</g>
		<path id="Color Fill 1" class="shp0" d="M96.7 31.9C98.96 32.44 101.21 34.22 102.16 36.18C102.64 37.15 103.23 39.13 103.09 39.28C102.96 39.4 82.32 38.21 81.94 38.06C81.71 37.97 81.58 37.78 81.58 37.52C81.58 36.82 81.84 36.77 84.49 36.88L86.93 36.98L87.41 36.05C88.02 34.85 89.54 33.34 90.78 32.68C92.55 31.74 94.82 31.45 96.7 31.9ZM95.6 40.3C99.66 40.54 103.03 40.78 103.07 40.81C103.12 40.86 103.04 41.38 102.9 41.98C102.02 45.76 98.64 48.44 94.77 48.44C92.33 48.44 90.56 47.69 88.83 45.98C87.27 44.42 86.37 42.47 86.37 40.57L86.37 39.82L87.28 39.84C87.8 39.85 91.53 40.06 95.6 40.3ZM102.18 49.32C103.17 49.64 104 50.37 104.48 51.36C104.83 52.08 105.17 54.06 107.05 67.12C109.12 81.38 109.22 82.1 109.04 83.23C108.81 84.87 108.1 86.29 106.91 87.49C105.31 89.09 106.04 88.83 89.76 93.08C85.13 94.28 84.94 94.34 84.94 94.71C84.94 94.92 85.3 99.67 85.75 105.26C86.2 110.85 86.52 115.69 86.45 116.02C86.33 116.85 85.88 117.7 85.22 118.32C83.01 120.44 79.35 119.52 78.42 116.61C78.33 116.31 77.37 110.37 76.3 103.44C74.46 91.61 74.37 90.76 74.53 89.82C74.85 87.95 75.97 86.29 77.51 85.4C77.87 85.19 81.87 83.69 86.41 82.05C92.25 79.94 94.68 78.98 94.68 78.82C94.68 78.69 94.1 74.8 93.4 70.19C92.7 65.57 92.12 61.72 92.12 61.66C92.12 61.6 92.06 61.53 91.98 61.53C91.9 61.53 89.34 63.14 86.31 65.11L80.8 68.7L73.57 70.14C69.6 70.94 66.1 71.59 65.81 71.59C64.1 71.59 62.75 69.79 63.22 68.16C63.43 67.46 64.02 66.74 64.66 66.42C64.89 66.31 67.93 65.54 71.43 64.71L77.82 63.22L83.95 57.43C91.53 50.26 90.7 50.77 96.54 49.78C101.08 49.02 101.16 49 102.18 49.32ZM145.61 60.83C146.4 61.18 147.19 61.96 147.62 62.89L148 63.69L147.98 75.58C147.98 85.1 147.94 87.59 147.78 88.08C147.46 88.96 146.8 89.73 145.96 90.22L145.21 90.67L133.23 90.72C124.44 90.75 121.08 90.72 120.57 90.57C119.73 90.33 118.51 89.28 118.13 88.43C117.86 87.83 117.83 87.08 117.83 75.61L117.83 63.43L118.21 62.68C118.67 61.76 119.13 61.32 120.06 60.91C120.76 60.59 121.03 60.57 132.91 60.59C143.39 60.59 145.13 60.62 145.61 60.83ZM63.16 63.51C63.94 63.77 65.3 64.42 65.3 64.57C65.3 64.61 64.98 64.74 64.58 64.85C63.51 65.14 62.22 66.45 61.88 67.58C61.74 68.06 61.63 68.64 61.63 68.88C61.63 69.69 62.11 70.89 62.7 71.57C63.85 72.92 65.46 73.31 67.81 72.8L68.81 72.58L68.81 93.8C68.81 108.89 68.86 115.24 68.99 115.85C69.08 116.31 69.36 117.04 69.56 117.47C70.04 118.43 71.4 119.81 72.29 120.27C73.83 121.05 74.27 121.08 82.57 121.08C87.72 121.08 90.64 121.02 91.2 120.91C93.53 120.41 95.52 118.58 96.18 116.31C96.4 115.56 96.43 114.3 96.43 107.72L96.43 100.01L113.83 100.01C126.02 100.01 131.24 100.06 131.24 100.18C131.24 100.26 131.41 101.54 131.64 102.99C131.86 104.45 132 105.68 131.97 105.71C131.92 105.76 131.52 105.71 131.08 105.61C130.55 105.5 127.55 105.44 122.55 105.44C115.34 105.44 114.76 105.45 113.58 105.76C109.12 106.91 105.72 110.24 104.54 114.68C104.26 115.73 104.21 116.53 104.14 120.64L104.06 125.39L71.03 125.39L38 125.39L38 122.3C38 118.88 38.22 117.25 38.91 115.49C40.63 111.17 44.32 108.07 48.94 107.11C49.61 106.97 50.96 106.87 52.32 106.87C54.56 106.87 54.6 106.87 54.68 106.51C54.76 106.17 55.34 103.46 59.25 85.24C60.3 80.32 61.2 76.17 61.25 76.01C61.33 75.76 61.12 75.74 58.52 75.74C55.47 75.74 54.92 75.63 54.08 74.82C53.82 74.58 53.47 74.11 53.31 73.78C53.01 73.22 52.99 72.88 53.04 69.29L53.09 65.41L53.52 64.79C53.76 64.45 54.22 63.99 54.56 63.77C55.13 63.37 55.18 63.37 58.82 63.34C61.48 63.3 62.68 63.35 63.16 63.51ZM132.99 92.47C133.3 92.62 133.71 92.98 133.9 93.29C134.22 93.75 134.27 94.04 134.27 95.38C134.27 96.72 134.22 97.01 133.9 97.47C133.12 98.65 134.69 98.57 112.97 98.57L93.51 98.57L93.62 97.69C93.83 95.91 95.09 94.01 96.67 93.06C98.19 92.19 97.97 92.19 115.91 92.19C131.33 92.19 132.47 92.2 132.99 92.47ZM131.36 107.19C132.83 107.58 133.7 107.96 134.86 108.76C136.71 110.02 138.21 112 139.03 114.25C139.44 115.4 139.44 115.49 139.51 120.4L139.57 125.39L122.63 125.39L105.69 125.39L105.69 120.8C105.69 115.57 105.79 114.97 106.84 112.78C107.75 110.88 109.67 108.98 111.6 108.04C113.93 106.91 114.27 106.87 122.73 106.89C129.54 106.89 130.29 106.92 131.36 107.19ZM134.03 127.74C133.97 128.17 133.7 129.11 133.41 129.86C132.08 133.42 129.1 136.27 125.41 137.46C123.56 138.07 120.67 138.18 118.78 137.7C117.06 137.29 114.84 136.19 113.56 135.13C111.73 133.62 110.18 131.2 109.52 128.87C108.97 126.83 108.77 126.99 111.89 126.99L114.57 126.99L114.86 127.84C115.8 130.61 118.59 132.61 121.56 132.63C124.64 132.64 127.34 130.79 128.38 127.93L128.73 126.99L131.43 126.99L134.14 126.99L134.03 127.74ZM66.5 127.74C66.34 128.81 65.6 130.81 64.97 131.89C64.66 132.4 63.74 133.5 62.91 134.33C61.23 136.01 59.86 136.86 57.64 137.56C56.62 137.88 56.1 137.93 54.12 137.93C51.54 137.93 50.42 137.67 48.36 136.65C45.33 135.12 42.76 131.92 41.93 128.65C41.46 126.86 41.27 126.99 44.39 126.99C46.45 126.99 47.1 127.04 47.1 127.18C47.1 127.52 48.01 129.35 48.49 129.98C49.16 130.85 50.64 131.87 51.83 132.26C54.64 133.2 58.02 132.21 59.71 129.96C60.34 129.14 61.15 127.56 61.15 127.18C61.15 127.04 61.8 126.99 63.88 126.99L66.61 126.99L66.5 127.74Z" />
	</g>
</svg>